<svg xmlns="http://www.w3.org/2000/svg" viewBox="0 0 48 48">
  <title>decentralized, blockchain, cryptocurrency</title>
  <path d="M40,20a3.997,3.997,0,0,0-3.8579,3H29.8989A5.9461,5.9461,0,0,0,28.88,20.5339l5.02-5.02a.9214.9214,0,0,0,.0593-.0893A4,4,0,1,0,32.5758,14.04a.9376.9376,0,0,0-.09.0594l-5.02,5.02A5.9461,5.9461,0,0,0,25,18.1011V11.8579a4,4,0,1,0-2,0v6.2431A5.9473,5.9473,0,0,0,20.5339,19.12L15.5146,14.1a.9387.9387,0,0,0-.09-.06,3.9968,3.9968,0,0,0-.5967-4.868,4.0941,4.0941,0,0,0-5.6562,0A4,4,0,0,0,12,16a3.9623,3.9623,0,0,0,2.0414-.5754.93.93,0,0,0,.0592.0891l5.0193,5.02A5.946,5.946,0,0,0,18.1011,23H11.8579a4,4,0,1,0,0,2h6.2432A5.946,5.946,0,0,0,19.12,27.4662l-5.0193,5.02a.9478.9478,0,0,0-.0653.0984,4.1042,4.1042,0,0,0-4.8634.5872,4,4,0,1,0,6.2527.7883.93.93,0,0,0,.09-.06l5.0193-5.02A5.9473,5.9473,0,0,0,23,29.8989V36.142a4,4,0,1,0,2,0V29.8989A5.9461,5.9461,0,0,0,27.4661,28.88l5.02,5.02a.9376.9376,0,0,0,.09.0594A3.9993,3.9993,0,1,0,33.96,32.5757a.9228.9228,0,0,0-.0593-.0894l-5.02-5.02A5.9461,5.9461,0,0,0,29.8989,25h6.2432A3.9934,3.9934,0,1,0,40,20Z" fill="#646464"/>
</svg>
