<svg width="542" height="560" viewBox="0 0 542 560" fill="none" xmlns="http://www.w3.org/2000/svg">
<path opacity="0.499674" d="M289.579 476.418C435.946 476.418 558.174 285.821 479.365 135.899C416.974 17.2094 318.042 -13.2831 182.978 128.439C127.133 187.036 42.9523 102.647 3.51838 256.084C-26.667 373.535 143.211 476.418 289.579 476.418Z" fill="url(#paint0_linear)"/>
<g filter="url(#filter0_d)">
<rect x="32" y="87" width="220" height="338" rx="24" fill="#6479F7"/>
</g>
<g filter="url(#filter1_d)">
<rect x="68" y="68" width="244" height="376" rx="24" fill="white"/>
</g>
<g filter="url(#filter2_d)">
<rect x="114" y="47" width="271" height="418" rx="24" fill="white"/>
</g>
<g filter="url(#filter3_d)">
<rect x="167" y="24" width="301" height="464" rx="24" fill="white"/>
</g>
<path d="M383 187C413.376 187 438 162.376 438 132C438 101.624 413.376 77 383 77C352.624 77 328 101.624 328 132C328 162.376 352.624 187 383 187Z" fill="#E9EFFF"/>
<path fill-rule="evenodd" clip-rule="evenodd" d="M384.996 100V116.1C392.208 117.016 397.884 122.692 398.796 129.9H414.896C413.896 113.852 401.044 101 384.996 100ZM351 131.904C351 140.008 354.052 147.396 359.036 153.04L370.412 141.664C368.304 138.952 367 135.592 367 131.9C367 123.764 373.128 117.1 381 116.104V100.004C364.288 101.044 351 114.932 351 131.904ZM383 147.9C391.14 147.9 397.8 141.772 398.8 133.9H414.9C413.856 150.612 399.968 163.9 383 163.9C374.896 163.9 367.508 160.848 361.864 155.864L373.24 144.488C375.952 146.592 379.312 147.9 383 147.9Z" fill="white"/>
<rect x="199" y="103" width="102" height="20" rx="6" fill="#E9EFFF"/>
<rect x="199" y="136" width="82" height="8" rx="4" fill="#E9EFFF"/>
<rect x="199" y="152" width="56" height="8" rx="4" fill="#E9EFFF"/>
<rect x="197" y="211" width="241" height="128" rx="16" fill="#E9EFFF"/>
<rect x="217" y="281" width="20" height="40" rx="8" fill="url(#paint1_linear)"/>
<rect x="398" y="281" width="20" height="40" rx="8" fill="url(#paint2_linear)"/>
<rect x="253" y="270" width="20" height="51" rx="8" fill="url(#paint3_linear)"/>
<rect x="290" y="273" width="20" height="48" rx="8" fill="url(#paint4_linear)"/>
<rect x="326" y="243" width="20" height="78" rx="8" fill="url(#paint5_linear)"/>
<rect x="362" y="262" width="20" height="59" rx="8" fill="url(#paint6_linear)"/>
<rect x="197" y="368" width="65" height="24" rx="8" fill="#FEE7EC"/>
<rect x="281" y="368" width="157" height="24" rx="8" fill="#FEE7EC"/>
<path d="M199 63.0698C203.418 63.0698 207 59.4881 207 55.0698C207 50.6515 203.418 47.0698 199 47.0698C194.582 47.0698 191 50.6515 191 55.0698C191 59.4881 194.582 63.0698 199 63.0698Z" fill="#FFE8ED"/>
<path d="M438 63C442.418 63 446 59.4183 446 55C446 50.5817 442.418 47 438 47C433.582 47 430 50.5817 430 55C430 59.4183 433.582 63 438 63Z" fill="#FFE8ED"/>
<path d="M318 459C331.255 459 342 448.255 342 435C342 421.745 331.255 411 318 411C304.745 411 294 421.745 294 435C294 448.255 304.745 459 318 459Z" fill="#E9EFFF"/>
<g filter="url(#filter4_d)">
<path d="M139 233C165.51 233 187 211.51 187 185C187 158.49 165.51 137 139 137C112.49 137 91 158.49 91 185C91 211.51 112.49 233 139 233Z" fill="url(#paint7_linear)"/>
</g>
<path fill-rule="evenodd" clip-rule="evenodd" d="M139 161C125.809 161 115 171.809 115 185C115 198.191 125.809 209 139 209C152.191 209 163 198.191 163 185C163 171.809 152.191 161 139 161ZM153.958 199.958C149.941 203.975 144.628 206.188 139 206.188C133.372 206.188 128.059 203.975 124.042 199.958C120.025 195.941 117.812 190.628 117.812 185C117.812 179.372 120.025 174.059 124.042 170.042C128.059 166.025 133.372 163.812 139 163.812C144.628 163.812 149.941 166.025 153.958 170.042C157.975 174.059 160.188 179.372 160.188 185C160.188 190.628 157.975 195.941 153.958 199.958ZM151.969 172.031C148.483 168.545 143.877 166.625 139 166.625C134.123 166.625 129.517 168.545 126.031 172.031C122.545 175.517 120.625 180.123 120.625 185C120.625 189.877 122.545 194.483 126.031 197.969C129.517 201.455 134.123 203.375 139 203.375C143.877 203.375 148.483 201.455 151.969 197.969C155.455 194.483 157.375 189.877 157.375 185C157.375 180.123 155.455 175.517 151.969 172.031ZM146.031 177.406L135.794 192.031H146.031V194.844H140.406V197.656H137.594V194.844H131.969V192.594C131.976 192.583 142.149 178.051 142.206 177.969H131.969V175.156H137.594V172.344H140.406V175.156H146.031V177.406Z" fill="white"/>
<g filter="url(#filter5_d)">
<rect x="454" y="304" width="64" height="64" rx="16" fill="url(#paint8_linear)"/>
</g>
<path fill-rule="evenodd" clip-rule="evenodd" d="M486.367 322.087C486.136 321.971 485.864 321.971 485.633 322.087L479.67 325.22L486 328.837L492.33 325.22L486.367 322.087ZM487.053 338.345L493.383 335.18L499.768 338.345L493.383 341.962L487.053 338.345ZM472 340.102V346.188C472 346.482 472.158 346.754 472.413 346.9L477.797 350V343.383L472 340.102ZM479.438 343.383V350L485.18 346.664V340.102L479.438 343.383ZM492.562 350L486.82 346.664V340.102L492.562 343.383V350ZM494.203 343.383V350L499.587 346.9C499.842 346.754 500 346.482 500 346.188V340.102L494.203 343.383ZM479.438 333.755V326.977L485.18 330.258V336.626L479.438 333.755ZM478.617 335.18L472.232 338.345L478.617 341.962L484.947 338.345L478.617 335.18ZM486.82 336.626V330.258L492.562 326.977V333.755L486.82 336.626Z" fill="white"/>
<defs>
<filter id="filter0_d" x="8" y="79" width="268" height="386" filterUnits="userSpaceOnUse" color-interpolation-filters="sRGB">
<feFlood flood-opacity="0" result="BackgroundImageFix"/>
<feColorMatrix in="SourceAlpha" type="matrix" values="0 0 0 0 0 0 0 0 0 0 0 0 0 0 0 0 0 0 127 0"/>
<feOffset dy="16"/>
<feGaussianBlur stdDeviation="12"/>
<feColorMatrix type="matrix" values="0 0 0 0 0 0 0 0 0 0.0458667 0 0 0 0 0.141422 0 0 0 0.158769 0"/>
<feBlend mode="normal" in2="BackgroundImageFix" result="effect1_dropShadow"/>
<feBlend mode="normal" in="SourceGraphic" in2="effect1_dropShadow" result="shape"/>
</filter>
<filter id="filter1_d" x="29" y="49" width="322" height="454" filterUnits="userSpaceOnUse" color-interpolation-filters="sRGB">
<feFlood flood-opacity="0" result="BackgroundImageFix"/>
<feColorMatrix in="SourceAlpha" type="matrix" values="0 0 0 0 0 0 0 0 0 0 0 0 0 0 0 0 0 0 127 0"/>
<feOffset dy="20"/>
<feGaussianBlur stdDeviation="19.5"/>
<feColorMatrix type="matrix" values="0 0 0 0 0.141422 0 0 0 0 0 0 0 0 0 0.0683813 0 0 0 0.158769 0"/>
<feBlend mode="normal" in2="BackgroundImageFix" result="effect1_dropShadow"/>
<feBlend mode="normal" in="SourceGraphic" in2="effect1_dropShadow" result="shape"/>
</filter>
<filter id="filter2_d" x="71" y="26" width="357" height="504" filterUnits="userSpaceOnUse" color-interpolation-filters="sRGB">
<feFlood flood-opacity="0" result="BackgroundImageFix"/>
<feColorMatrix in="SourceAlpha" type="matrix" values="0 0 0 0 0 0 0 0 0 0 0 0 0 0 0 0 0 0 127 0"/>
<feOffset dy="22"/>
<feGaussianBlur stdDeviation="21.5"/>
<feColorMatrix type="matrix" values="0 0 0 0 0.141422 0 0 0 0 0 0 0 0 0 0.0683813 0 0 0 0.158769 0"/>
<feBlend mode="normal" in2="BackgroundImageFix" result="effect1_dropShadow"/>
<feBlend mode="normal" in="SourceGraphic" in2="effect1_dropShadow" result="shape"/>
</filter>
<filter id="filter3_d" x="119" y="0" width="397" height="560" filterUnits="userSpaceOnUse" color-interpolation-filters="sRGB">
<feFlood flood-opacity="0" result="BackgroundImageFix"/>
<feColorMatrix in="SourceAlpha" type="matrix" values="0 0 0 0 0 0 0 0 0 0 0 0 0 0 0 0 0 0 127 0"/>
<feOffset dy="24"/>
<feGaussianBlur stdDeviation="24"/>
<feColorMatrix type="matrix" values="0 0 0 0 0.141422 0 0 0 0 0 0 0 0 0 0.0683813 0 0 0 0.158769 0"/>
<feBlend mode="normal" in2="BackgroundImageFix" result="effect1_dropShadow"/>
<feBlend mode="normal" in="SourceGraphic" in2="effect1_dropShadow" result="shape"/>
</filter>
<filter id="filter4_d" x="67" y="129" width="144" height="144" filterUnits="userSpaceOnUse" color-interpolation-filters="sRGB">
<feFlood flood-opacity="0" result="BackgroundImageFix"/>
<feColorMatrix in="SourceAlpha" type="matrix" values="0 0 0 0 0 0 0 0 0 0 0 0 0 0 0 0 0 0 127 0"/>
<feOffset dy="16"/>
<feGaussianBlur stdDeviation="12"/>
<feColorMatrix type="matrix" values="0 0 0 0 0 0 0 0 0 0.0470588 0 0 0 0 0.141176 0 0 0 0.16361 0"/>
<feBlend mode="normal" in2="BackgroundImageFix" result="effect1_dropShadow"/>
<feBlend mode="normal" in="SourceGraphic" in2="effect1_dropShadow" result="shape"/>
</filter>
<filter id="filter5_d" x="430" y="296" width="112" height="112" filterUnits="userSpaceOnUse" color-interpolation-filters="sRGB">
<feFlood flood-opacity="0" result="BackgroundImageFix"/>
<feColorMatrix in="SourceAlpha" type="matrix" values="0 0 0 0 0 0 0 0 0 0 0 0 0 0 0 0 0 0 127 0"/>
<feOffset dy="16"/>
<feGaussianBlur stdDeviation="12"/>
<feColorMatrix type="matrix" values="0 0 0 0 0.141422 0 0 0 0 0 0 0 0 0 0.0683813 0 0 0 0.158769 0"/>
<feBlend mode="normal" in2="BackgroundImageFix" result="effect1_dropShadow"/>
<feBlend mode="normal" in="SourceGraphic" in2="effect1_dropShadow" result="shape"/>
</filter>
<linearGradient id="paint0_linear" x1="0" y1="34" x2="0" y2="476.418" gradientUnits="userSpaceOnUse">
<stop stop-color="#D05E84"/>
<stop offset="1" stop-color="#F09CAD"/>
</linearGradient>
<linearGradient id="paint1_linear" x1="217" y1="281" x2="217" y2="321" gradientUnits="userSpaceOnUse">
<stop stop-color="#D2DBF4"/>
<stop offset="1" stop-color="#E9EFFF"/>
</linearGradient>
<linearGradient id="paint2_linear" x1="398" y1="281" x2="398" y2="321" gradientUnits="userSpaceOnUse">
<stop stop-color="#D2DBF4"/>
<stop offset="1" stop-color="#E9EFFF"/>
</linearGradient>
<linearGradient id="paint3_linear" x1="253" y1="270" x2="253" y2="321" gradientUnits="userSpaceOnUse">
<stop stop-color="#D2DBF4"/>
<stop offset="1" stop-color="#E9EFFF"/>
</linearGradient>
<linearGradient id="paint4_linear" x1="290" y1="273" x2="290" y2="321" gradientUnits="userSpaceOnUse">
<stop stop-color="#D2DBF4"/>
<stop offset="1" stop-color="#E9EFFF"/>
</linearGradient>
<linearGradient id="paint5_linear" x1="326" y1="243" x2="326" y2="321" gradientUnits="userSpaceOnUse">
<stop stop-color="#D2DBF4"/>
<stop offset="1" stop-color="#E9EFFF"/>
</linearGradient>
<linearGradient id="paint6_linear" x1="362" y1="262" x2="362" y2="321" gradientUnits="userSpaceOnUse">
<stop stop-color="#D2DBF4"/>
<stop offset="1" stop-color="#E9EFFF"/>
</linearGradient>
<linearGradient id="paint7_linear" x1="91" y1="137" x2="91" y2="233" gradientUnits="userSpaceOnUse">
<stop stop-color="#34405D"/>
<stop offset="1" stop-color="#465373"/>
</linearGradient>
<linearGradient id="paint8_linear" x1="454" y1="304" x2="454" y2="368" gradientUnits="userSpaceOnUse">
<stop stop-color="#D05E84"/>
<stop offset="1" stop-color="#F09CAD"/>
</linearGradient>
</defs>
</svg>
