<svg width="577" height="531" viewBox="0 0 577 531" fill="none" xmlns="http://www.w3.org/2000/svg">
<path opacity="0.502837" d="M254.499 530.418C108.132 530.418 -14.0966 339.821 64.7123 189.899C127.104 71.2094 226.036 40.7169 361.1 182.439C416.944 241.036 501.125 156.647 540.559 310.084C570.745 427.535 400.866 530.418 254.499 530.418Z" fill="url(#paint0_linear)"/>
<g filter="url(#filter0_d)">
<rect x="27" y="23" width="230" height="421" rx="20.4" fill="#7A98F8"/>
</g>
<rect x="7" width="270" height="464" rx="24" fill="#7A98F8"/>
<g filter="url(#filter1_d)">
<path d="M205 112C227.091 112 245 94.0914 245 72C245 49.9086 227.091 32 205 32C182.909 32 165 49.9086 165 72C165 94.0914 182.909 112 205 112Z" fill="white"/>
</g>
<path fill-rule="evenodd" clip-rule="evenodd" d="M199.428 56.2434C201.464 55.444 203.679 55 206 55C215.942 55 224 63.0592 224 73C224 82.9408 215.942 91 206 91C196.058 91 188 82.9408 188 73C188 70.6399 188.459 68.3883 189.284 66.3235C190.106 67.3954 190.913 68.3172 191.468 68.9195L193.21 70.8136L194.953 68.9195C196.565 67.1675 200.316 62.7544 200.316 59.6183C200.316 58.3947 199.992 57.2443 199.428 56.2434ZM211.684 85.9501L213.418 84.0868C215.122 82.255 220.684 75.9558 220.683 71.8159C220.683 70.5205 220.385 69.2932 219.864 68.1853C217.866 62.4466 212.409 58.3156 205.999 58.3156C204.986 58.3156 203.997 58.4189 203.041 58.6138C203.065 58.882 203.147 59.1435 203.287 59.3406L204.368 60.8588C204.669 61.2838 204.84 62.0495 204.746 62.5624L204.466 64.0909C204.372 64.603 203.908 65.2009 203.435 65.4193L201.535 66.2963C201.061 66.5147 200.853 67.0811 201.07 67.5544L201.873 69.302C202.091 69.7753 202.174 70.5784 202.057 71.0861L201.829 72.076C201.712 72.5838 201.24 73.1986 200.78 73.4433L199.377 74.1877C198.917 74.4317 198.182 74.401 197.744 74.1189L196.596 73.3803C196.158 73.0989 195.433 73.0843 194.984 73.3502L193.834 74.0317C193.385 74.2969 193.314 74.8223 193.674 75.1982L194.318 75.8701C194.679 76.246 194.886 76.9706 194.78 77.4806L194.652 78.0975C194.545 78.6075 194.14 79.3095 193.753 79.6575L193.188 80.1631C195.036 83.4537 198.112 85.964 201.793 87.0668L202.015 86.304C202.16 85.8036 201.938 85.1382 201.521 84.8261L200.6 84.1351C200.183 83.823 200.097 83.2258 200.41 82.8097L202.928 79.4501C203.241 79.0332 203.858 78.9182 204.3 79.1944L205.13 79.7139C205.572 79.9901 205.811 80.6247 205.661 81.1237L205.292 82.3546C205.142 82.8536 205.445 83.2947 205.964 83.335L208.035 83.494C208.378 83.5204 208.803 83.4032 209.152 83.209C209.466 83.5622 209.738 83.8596 209.949 84.0868L211.684 85.9501ZM205.052 71.8159C205.052 68.282 208.022 65.4207 211.684 65.4207C215.346 65.4207 218.316 68.2827 218.315 71.8159C218.315 75.3462 211.684 82.4733 211.684 82.4733C211.684 82.4733 205.052 75.3462 205.052 71.8159ZM208.841 71.5785C208.841 73.1487 210.113 74.4207 211.684 74.4207C213.254 74.4207 214.526 73.1487 214.526 71.5785C214.526 70.0083 213.253 68.7363 211.684 68.7363C210.113 68.7363 208.841 70.009 208.841 71.5785ZM193.21 55C190.595 55 188.473 57.0663 188.473 59.6183C188.473 62.1689 193.21 67.3156 193.21 67.3156C193.21 67.3156 197.947 62.1682 197.947 59.6183C197.947 57.0663 195.826 55 193.21 55ZM193.21 61.1578C192.163 61.1578 191.316 60.3093 191.316 59.263C191.316 58.2159 192.163 57.3682 193.21 57.3682C194.257 57.3682 195.104 58.2159 195.104 59.263C195.105 60.3093 194.257 61.1578 193.21 61.1578Z" fill="#7A98F8"/>
<path d="M7 248.449C7 248.449 42.0212 227.459 72.207 232.449C114.613 239.459 119.225 279.658 152.184 272.449C192.373 263.658 182.676 207.338 218.504 200.449C245.084 195.338 277 248.449 277 248.449V426.049C277 439.49 277 446.211 274.384 451.344C272.083 455.86 268.412 459.532 263.896 461.833C258.762 464.449 252.041 464.449 238.6 464.449H45.4C31.9587 464.449 25.2381 464.449 20.1042 461.833C15.5883 459.532 11.9168 455.86 9.61584 451.344C7 446.211 7 439.49 7 426.049L7 248.449Z" fill="url(#paint1_linear)"/>
<path d="M55.5879 360.479C53.4108 360.479 51.4069 360.689 49.5762 361.109C47.7702 361.505 46.1621 361.913 44.752 362.334C44.3066 362.458 43.985 362.52 43.7871 362.52C43.3665 362.52 43.0326 362.433 42.7852 362.26C42.5625 362.062 42.4512 361.827 42.4512 361.555C42.4512 361.085 42.8717 360.627 43.7129 360.182C44.5788 359.736 45.6549 359.353 46.9414 359.031C48.2526 358.685 49.6751 358.413 51.209 358.215C52.7428 358.017 54.2025 357.918 55.5879 357.918C58.3092 357.918 60.6348 358.19 62.5645 358.734C64.4941 359.279 66.0651 360.058 67.2773 361.072C68.5143 362.087 69.4049 363.311 69.9492 364.746C70.5182 366.156 70.8027 367.727 70.8027 369.459C70.8027 371.587 70.4193 373.393 69.6523 374.877C68.9102 376.361 67.9206 377.648 66.6836 378.736C65.4714 379.825 64.0859 380.765 62.5273 381.557C60.9688 382.348 59.3607 383.103 57.7031 383.82C56.0703 384.538 54.4746 385.28 52.916 386.047C51.3574 386.789 49.9596 387.68 48.7227 388.719C47.5104 389.733 46.5208 390.945 45.7539 392.355C45.0117 393.741 44.6406 395.423 44.6406 397.402H66.9062C67.4753 397.402 67.8958 397.538 68.168 397.811C68.4401 398.083 68.5762 398.392 68.5762 398.738C68.5762 399.085 68.4401 399.394 68.168 399.666C67.8958 399.938 67.4753 400.074 66.9062 400.074H43.416C42.6986 400.074 42.278 399.876 42.1543 399.48C42.0306 399.06 41.9688 398.367 41.9688 397.402C41.9688 395.225 42.3398 393.345 43.082 391.762C43.8242 390.178 44.8014 388.805 46.0137 387.643C47.2507 386.455 48.6484 385.428 50.207 384.562C51.7904 383.697 53.3861 382.88 54.9941 382.113C56.627 381.346 58.2227 380.592 59.7812 379.85C61.3646 379.083 62.7624 378.229 63.9746 377.289C65.2116 376.324 66.2012 375.223 66.9434 373.986C67.6855 372.725 68.0566 371.215 68.0566 369.459C68.0566 367.851 67.7598 366.478 67.166 365.34C66.597 364.202 65.7682 363.274 64.6797 362.557C63.6159 361.839 62.3171 361.32 60.7832 360.998C59.2493 360.652 57.5176 360.479 55.5879 360.479ZM106.465 379.33C106.465 376.114 106.267 373.318 105.871 370.943C105.5 368.544 104.807 366.564 103.793 365.006C102.803 363.423 101.43 362.247 99.6738 361.48C97.9421 360.714 95.7279 360.33 93.0312 360.33C90.3594 360.33 88.1576 360.714 86.4258 361.48C84.694 362.247 83.321 363.423 82.3066 365.006C81.2923 366.564 80.5872 368.544 80.1914 370.943C79.7956 373.318 79.5977 376.114 79.5977 379.33C79.5977 382.571 79.7956 385.379 80.1914 387.754C80.5872 390.129 81.2923 392.108 82.3066 393.691C83.321 395.25 84.694 396.413 86.4258 397.18C88.1576 397.947 90.3594 398.33 93.0312 398.33C95.7279 398.33 97.9421 397.947 99.6738 397.18C101.43 396.413 102.803 395.25 103.793 393.691C104.807 392.108 105.5 390.129 105.871 387.754C106.267 385.379 106.465 382.571 106.465 379.33ZM76.7773 379.33C76.7773 376.114 76.9876 373.182 77.4082 370.535C77.8535 367.888 78.6699 365.637 79.8574 363.781C81.0449 361.901 82.6901 360.454 84.793 359.439C86.9206 358.4 89.6667 357.881 93.0312 357.881C96.3958 357.881 99.1296 358.4 101.232 359.439C103.36 360.454 105.018 361.901 106.205 363.781C107.393 365.637 108.197 367.888 108.617 370.535C109.062 373.182 109.285 376.114 109.285 379.33C109.285 382.571 109.062 385.515 108.617 388.162C108.197 390.785 107.393 393.036 106.205 394.916C105.018 396.771 103.36 398.219 101.232 399.258C99.1296 400.272 96.3958 400.779 93.0312 400.779C89.6667 400.779 86.9206 400.272 84.793 399.258C82.6901 398.219 81.0449 396.771 79.8574 394.916C78.6699 393.036 77.8535 390.785 77.4082 388.162C76.9876 385.515 76.7773 382.571 76.7773 379.33ZM145.801 379.33C145.801 376.114 145.603 373.318 145.207 370.943C144.836 368.544 144.143 366.564 143.129 365.006C142.139 363.423 140.766 362.247 139.01 361.48C137.278 360.714 135.064 360.33 132.367 360.33C129.695 360.33 127.493 360.714 125.762 361.48C124.03 362.247 122.657 363.423 121.643 365.006C120.628 366.564 119.923 368.544 119.527 370.943C119.132 373.318 118.934 376.114 118.934 379.33C118.934 382.571 119.132 385.379 119.527 387.754C119.923 390.129 120.628 392.108 121.643 393.691C122.657 395.25 124.03 396.413 125.762 397.18C127.493 397.947 129.695 398.33 132.367 398.33C135.064 398.33 137.278 397.947 139.01 397.18C140.766 396.413 142.139 395.25 143.129 393.691C144.143 392.108 144.836 390.129 145.207 387.754C145.603 385.379 145.801 382.571 145.801 379.33ZM116.113 379.33C116.113 376.114 116.324 373.182 116.744 370.535C117.189 367.888 118.006 365.637 119.193 363.781C120.381 361.901 122.026 360.454 124.129 359.439C126.257 358.4 129.003 357.881 132.367 357.881C135.732 357.881 138.465 358.4 140.568 359.439C142.696 360.454 144.354 361.901 145.541 363.781C146.729 365.637 147.533 367.888 147.953 370.535C148.398 373.182 148.621 376.114 148.621 379.33C148.621 382.571 148.398 385.515 147.953 388.162C147.533 390.785 146.729 393.036 145.541 394.916C144.354 396.771 142.696 398.219 140.568 399.258C138.465 400.272 135.732 400.779 132.367 400.779C129.003 400.779 126.257 400.272 124.129 399.258C122.026 398.219 120.381 396.771 119.193 394.916C118.006 393.036 117.189 390.785 116.744 388.162C116.324 385.515 116.113 382.571 116.113 379.33ZM165.691 381.037V372.465C165.691 372.044 165.803 371.735 166.025 371.537C166.248 371.339 166.508 371.24 166.805 371.24C167.077 371.24 167.324 371.339 167.547 371.537C167.794 371.735 167.918 372.044 167.918 372.465V381.037H177.641C178.111 381.037 178.445 381.148 178.643 381.371C178.865 381.569 178.977 381.804 178.977 382.076C178.977 382.324 178.865 382.546 178.643 382.744C178.445 382.942 178.111 383.041 177.641 383.041H167.918V391.688C167.918 392.108 167.794 392.417 167.547 392.615C167.324 392.788 167.077 392.875 166.805 392.875C166.508 392.875 166.248 392.788 166.025 392.615C165.803 392.417 165.691 392.108 165.691 391.688V383.041H156.006C155.536 383.041 155.189 382.942 154.967 382.744C154.769 382.546 154.67 382.324 154.67 382.076C154.67 381.804 154.769 381.569 154.967 381.371C155.189 381.148 155.536 381.037 156.006 381.037H165.691Z" fill="white"/>
<path d="M51.38 429.62C51.4467 429.62 51.5033 429.643 51.55 429.69L51.95 430.12C51.6567 430.433 51.3367 430.717 50.99 430.97C50.6433 431.217 50.2633 431.43 49.85 431.61C49.4433 431.783 48.9933 431.917 48.5 432.01C48.0133 432.11 47.4767 432.16 46.89 432.16C45.91 432.16 45.01 431.99 44.19 431.65C43.3767 431.303 42.6767 430.817 42.09 430.19C41.51 429.557 41.0567 428.793 40.73 427.9C40.4033 427.007 40.24 426.013 40.24 424.92C40.24 423.847 40.4067 422.867 40.74 421.98C41.08 421.093 41.5533 420.333 42.16 419.7C42.7733 419.06 43.5033 418.567 44.35 418.22C45.2033 417.867 46.1433 417.69 47.17 417.69C47.6833 417.69 48.1533 417.73 48.58 417.81C49.0067 417.883 49.4033 417.993 49.77 418.14C50.1433 418.28 50.4933 418.457 50.82 418.67C51.1467 418.883 51.4667 419.13 51.78 419.41L51.47 419.86C51.4167 419.94 51.3333 419.98 51.22 419.98C51.16 419.98 51.0833 419.947 50.99 419.88C50.8967 419.807 50.7767 419.72 50.63 419.62C50.49 419.513 50.3167 419.4 50.11 419.28C49.91 419.153 49.67 419.04 49.39 418.94C49.11 418.833 48.7867 418.747 48.42 418.68C48.0533 418.607 47.6367 418.57 47.17 418.57C46.31 418.57 45.52 418.72 44.8 419.02C44.08 419.313 43.46 419.737 42.94 420.29C42.42 420.837 42.0133 421.503 41.72 422.29C41.4333 423.07 41.29 423.947 41.29 424.92C41.29 425.92 41.4333 426.813 41.72 427.6C42.0067 428.387 42.4033 429.053 42.91 429.6C43.4167 430.14 44.0133 430.557 44.7 430.85C45.3933 431.137 46.1433 431.28 46.95 431.28C47.4567 431.28 47.9067 431.247 48.3 431.18C48.7 431.113 49.0667 431.013 49.4 430.88C49.7333 430.747 50.0433 430.583 50.33 430.39C50.6167 430.197 50.9 429.97 51.18 429.71C51.2133 429.683 51.2433 429.663 51.27 429.65C51.3033 429.63 51.34 429.62 51.38 429.62ZM58.4725 421.89C59.1858 421.89 59.8225 422.013 60.3825 422.26C60.9492 422.5 61.4258 422.843 61.8125 423.29C62.1992 423.737 62.4925 424.277 62.6925 424.91C62.8992 425.537 63.0025 426.24 63.0025 427.02C63.0025 427.8 62.8992 428.503 62.6925 429.13C62.4925 429.757 62.1992 430.293 61.8125 430.74C61.4258 431.187 60.9492 431.53 60.3825 431.77C59.8225 432.01 59.1858 432.13 58.4725 432.13C57.7592 432.13 57.1192 432.01 56.5525 431.77C55.9925 431.53 55.5158 431.187 55.1225 430.74C54.7358 430.293 54.4392 429.757 54.2325 429.13C54.0325 428.503 53.9325 427.8 53.9325 427.02C53.9325 426.24 54.0325 425.537 54.2325 424.91C54.4392 424.277 54.7358 423.737 55.1225 423.29C55.5158 422.843 55.9925 422.5 56.5525 422.26C57.1192 422.013 57.7592 421.89 58.4725 421.89ZM58.4725 431.38C59.0658 431.38 59.5825 431.28 60.0225 431.08C60.4692 430.873 60.8392 430.58 61.1325 430.2C61.4325 429.82 61.6558 429.363 61.8025 428.83C61.9492 428.29 62.0225 427.687 62.0225 427.02C62.0225 426.36 61.9492 425.76 61.8025 425.22C61.6558 424.68 61.4325 424.22 61.1325 423.84C60.8392 423.453 60.4692 423.157 60.0225 422.95C59.5825 422.743 59.0658 422.64 58.4725 422.64C57.8792 422.64 57.3592 422.743 56.9125 422.95C56.4725 423.157 56.1025 423.453 55.8025 423.84C55.5092 424.22 55.2858 424.68 55.1325 425.22C54.9858 425.76 54.9125 426.36 54.9125 427.02C54.9125 427.687 54.9858 428.29 55.1325 428.83C55.2858 429.363 55.5092 429.82 55.8025 430.2C56.1025 430.58 56.4725 430.873 56.9125 431.08C57.3592 431.28 57.8792 431.38 58.4725 431.38ZM66.2128 422.05V428.41C66.2128 429.343 66.4261 430.077 66.8528 430.61C67.2795 431.137 67.9295 431.4 68.8028 431.4C69.4495 431.4 70.0528 431.237 70.6128 430.91C71.1728 430.577 71.6761 430.117 72.1228 429.53V422.05H73.0828V432H72.5528C72.3661 432 72.2695 431.913 72.2628 431.74L72.1728 430.26C71.7128 430.833 71.1795 431.293 70.5728 431.64C69.9728 431.987 69.3028 432.16 68.5628 432.16C68.0095 432.16 67.5261 432.073 67.1128 431.9C66.6995 431.727 66.3561 431.477 66.0828 431.15C65.8095 430.823 65.6028 430.43 65.4628 429.97C65.3228 429.51 65.2528 428.99 65.2528 428.41V422.05H66.2128ZM76.3231 432V422.05H76.8431C77.0165 422.05 77.1165 422.133 77.1431 422.3L77.2331 423.8C77.6865 423.227 78.2131 422.767 78.8131 422.42C79.4198 422.067 80.0931 421.89 80.8331 421.89C81.3798 421.89 81.8598 421.977 82.2731 422.15C82.6931 422.323 83.0398 422.573 83.3131 422.9C83.5865 423.227 83.7931 423.62 83.9331 424.08C84.0731 424.54 84.1431 425.06 84.1431 425.64V432H83.1931V425.64C83.1931 424.707 82.9798 423.977 82.5531 423.45C82.1265 422.917 81.4731 422.65 80.5931 422.65C79.9398 422.65 79.3331 422.82 78.7731 423.16C78.2131 423.493 77.7131 423.953 77.2731 424.54V432H76.3231ZM89.8634 432.16C89.1901 432.16 88.6634 431.973 88.2834 431.6C87.9101 431.227 87.7234 430.65 87.7234 429.87V423.07H86.2934C86.2201 423.07 86.1601 423.05 86.1134 423.01C86.0668 422.97 86.0434 422.913 86.0434 422.84V422.47L87.7434 422.35L87.9834 418.79C87.9901 418.73 88.0134 418.677 88.0534 418.63C88.1001 418.583 88.1601 418.56 88.2334 418.56H88.6834V422.36H91.8134V423.07H88.6834V429.82C88.6834 430.093 88.7168 430.33 88.7834 430.53C88.8568 430.723 88.9534 430.883 89.0734 431.01C89.2001 431.137 89.3468 431.23 89.5134 431.29C89.6801 431.35 89.8601 431.38 90.0534 431.38C90.2934 431.38 90.5001 431.347 90.6734 431.28C90.8468 431.207 90.9968 431.13 91.1234 431.05C91.2501 430.963 91.3534 430.887 91.4334 430.82C91.5134 430.747 91.5768 430.71 91.6234 430.71C91.6768 430.71 91.7301 430.743 91.7834 430.81L92.0434 431.23C91.7901 431.51 91.4668 431.737 91.0734 431.91C90.6868 432.077 90.2834 432.16 89.8634 432.16ZM94.2723 432V422.05H94.7723C94.8857 422.05 94.9657 422.073 95.0123 422.12C95.0657 422.167 95.0957 422.247 95.1023 422.36L95.1823 424.46C95.5023 423.653 95.929 423.023 96.4623 422.57C96.9957 422.11 97.6523 421.88 98.4323 421.88C98.7323 421.88 99.009 421.913 99.2623 421.98C99.5157 422.04 99.7557 422.13 99.9823 422.25L99.8523 422.91C99.8323 423.017 99.7657 423.07 99.6523 423.07C99.6123 423.07 99.5557 423.057 99.4823 423.03C99.409 423.003 99.3157 422.973 99.2023 422.94C99.0957 422.907 98.9623 422.877 98.8023 422.85C98.6423 422.823 98.459 422.81 98.2523 422.81C97.499 422.81 96.879 423.043 96.3923 423.51C95.9123 423.977 95.5223 424.65 95.2223 425.53V432H94.2723ZM103.452 422.05V432H102.502V422.05H103.452ZM103.872 418.62C103.872 418.74 103.845 418.853 103.792 418.96C103.745 419.06 103.682 419.15 103.602 419.23C103.522 419.31 103.428 419.373 103.322 419.42C103.215 419.467 103.102 419.49 102.982 419.49C102.862 419.49 102.748 419.467 102.642 419.42C102.535 419.373 102.442 419.31 102.362 419.23C102.282 419.15 102.218 419.06 102.172 418.96C102.125 418.853 102.102 418.74 102.102 418.62C102.102 418.5 102.125 418.387 102.172 418.28C102.218 418.167 102.282 418.07 102.362 417.99C102.442 417.91 102.535 417.847 102.642 417.8C102.748 417.753 102.862 417.73 102.982 417.73C103.102 417.73 103.215 417.753 103.322 417.8C103.428 417.847 103.522 417.91 103.602 417.99C103.682 418.07 103.745 418.167 103.792 418.28C103.845 418.387 103.872 418.5 103.872 418.62ZM110.718 421.89C111.278 421.89 111.794 421.987 112.268 422.18C112.748 422.373 113.161 422.657 113.508 423.03C113.861 423.397 114.134 423.85 114.328 424.39C114.528 424.93 114.628 425.55 114.628 426.25C114.628 426.397 114.604 426.497 114.558 426.55C114.518 426.603 114.451 426.63 114.358 426.63H107.168V426.82C107.168 427.567 107.254 428.223 107.428 428.79C107.601 429.357 107.848 429.833 108.168 430.22C108.488 430.6 108.874 430.887 109.328 431.08C109.781 431.273 110.288 431.37 110.848 431.37C111.348 431.37 111.781 431.317 112.148 431.21C112.514 431.097 112.821 430.973 113.068 430.84C113.321 430.7 113.521 430.577 113.668 430.47C113.814 430.357 113.921 430.3 113.988 430.3C114.074 430.3 114.141 430.333 114.188 430.4L114.448 430.72C114.288 430.92 114.074 431.107 113.808 431.28C113.548 431.453 113.254 431.603 112.928 431.73C112.608 431.85 112.261 431.947 111.888 432.02C111.521 432.093 111.151 432.13 110.778 432.13C110.098 432.13 109.478 432.013 108.918 431.78C108.358 431.54 107.878 431.193 107.478 430.74C107.078 430.287 106.768 429.733 106.548 429.08C106.334 428.42 106.228 427.667 106.228 426.82C106.228 426.107 106.328 425.45 106.528 424.85C106.734 424.243 107.028 423.723 107.408 423.29C107.794 422.85 108.264 422.507 108.818 422.26C109.378 422.013 110.011 421.89 110.718 421.89ZM110.728 422.6C110.214 422.6 109.754 422.68 109.348 422.84C108.941 423 108.588 423.23 108.288 423.53C107.994 423.83 107.754 424.19 107.568 424.61C107.388 425.03 107.268 425.5 107.208 426.02H113.768C113.768 425.487 113.694 425.01 113.548 424.59C113.401 424.163 113.194 423.803 112.928 423.51C112.661 423.217 112.341 422.993 111.968 422.84C111.594 422.68 111.181 422.6 110.728 422.6ZM122.663 423.28C122.616 423.373 122.543 423.42 122.443 423.42C122.369 423.42 122.273 423.38 122.153 423.3C122.039 423.213 121.886 423.12 121.693 423.02C121.506 422.913 121.273 422.82 120.993 422.74C120.719 422.653 120.383 422.61 119.983 422.61C119.623 422.61 119.293 422.663 118.993 422.77C118.699 422.87 118.446 423.007 118.233 423.18C118.026 423.353 117.863 423.557 117.743 423.79C117.629 424.017 117.573 424.257 117.573 424.51C117.573 424.823 117.653 425.083 117.813 425.29C117.973 425.497 118.183 425.673 118.443 425.82C118.703 425.967 118.996 426.093 119.323 426.2C119.656 426.307 119.996 426.413 120.343 426.52C120.689 426.627 121.026 426.747 121.353 426.88C121.686 427.007 121.983 427.167 122.243 427.36C122.503 427.553 122.713 427.79 122.873 428.07C123.033 428.35 123.113 428.69 123.113 429.09C123.113 429.523 123.033 429.927 122.873 430.3C122.719 430.673 122.493 430.997 122.193 431.27C121.899 431.543 121.536 431.76 121.103 431.92C120.669 432.08 120.176 432.16 119.623 432.16C118.923 432.16 118.319 432.05 117.813 431.83C117.306 431.603 116.853 431.31 116.453 430.95L116.683 430.61C116.716 430.557 116.753 430.517 116.793 430.49C116.833 430.463 116.889 430.45 116.963 430.45C117.049 430.45 117.156 430.503 117.283 430.61C117.409 430.717 117.573 430.833 117.773 430.96C117.979 431.08 118.233 431.193 118.533 431.3C118.839 431.407 119.216 431.46 119.663 431.46C120.083 431.46 120.453 431.403 120.773 431.29C121.093 431.17 121.359 431.01 121.573 430.81C121.786 430.61 121.946 430.377 122.053 430.11C122.166 429.837 122.223 429.55 122.223 429.25C122.223 428.917 122.143 428.64 121.983 428.42C121.823 428.2 121.613 428.013 121.353 427.86C121.093 427.707 120.796 427.577 120.463 427.47C120.136 427.363 119.796 427.257 119.443 427.15C119.096 427.043 118.756 426.927 118.423 426.8C118.096 426.673 117.803 426.513 117.543 426.32C117.283 426.127 117.073 425.893 116.913 425.62C116.753 425.34 116.673 424.993 116.673 424.58C116.673 424.227 116.749 423.887 116.903 423.56C117.056 423.233 117.273 422.947 117.553 422.7C117.839 422.453 118.186 422.257 118.593 422.11C118.999 421.963 119.456 421.89 119.963 421.89C120.569 421.89 121.106 421.977 121.573 422.15C122.046 422.323 122.479 422.59 122.873 422.95L122.663 423.28Z" fill="white"/>
<g clip-path="url(#clip0)">
<g filter="url(#filter2_d)">
<rect x="327" y="90" width="230" height="418" rx="20.4" fill="#7A98F8"/>
</g>
<rect x="307" y="64" width="270" height="464" rx="24" fill="#E17E9A"/>
<g filter="url(#filter3_d)">
<path d="M505 176C527.091 176 545 158.091 545 136C545 113.909 527.091 96 505 96C482.909 96 465 113.909 465 136C465 158.091 482.909 176 505 176Z" fill="white"/>
</g>
<path fill-rule="evenodd" clip-rule="evenodd" d="M513.438 123.508C513.438 128.168 509.66 131.945 505 131.945C500.34 131.945 496.562 128.168 496.562 123.508C496.562 118.848 500.34 115 505 115C509.66 115 513.438 118.848 513.438 123.508ZM501.836 121.398C501.836 123.143 503.255 124.562 505 124.562C505.582 124.562 506.055 125.035 506.055 125.617C506.055 126.199 505.582 126.672 505 126.672C504.418 126.672 503.945 126.199 503.945 125.617C503.945 125.034 503.473 124.562 502.891 124.562C502.308 124.562 501.836 125.034 501.836 125.617C501.836 126.99 502.72 128.15 503.945 128.587V129.836C503.945 130.419 504.417 130.891 505 130.891C505.583 130.891 506.055 130.419 506.055 129.836V128.587C507.28 128.15 508.164 126.99 508.164 125.617C508.164 123.873 506.745 122.453 505 122.453C504.418 122.453 503.945 121.98 503.945 121.398C503.945 120.816 504.418 120.344 505 120.344C505.582 120.344 506.055 120.816 506.055 121.398C506.055 121.981 506.527 122.453 507.109 122.453C507.692 122.453 508.164 121.981 508.164 121.398C508.164 120.025 507.28 118.866 506.055 118.429V117.109C506.055 116.527 505.583 116.055 505 116.055C504.417 116.055 503.945 116.527 503.945 117.109V118.429C502.72 118.866 501.836 120.025 501.836 121.398ZM487 149.945C487 150.528 487.472 151 488.055 151H521.945C522.528 151 523 150.528 523 149.945V142.492H487V149.945ZM491.294 130.499L487.34 140.383H522.659L518.706 130.499C518.545 130.099 518.158 129.836 517.727 129.836H513.384C511.456 132.382 508.432 134.055 505 134.055C501.568 134.055 498.544 132.382 496.616 129.836H492.273C491.842 129.836 491.455 130.099 491.294 130.499ZM513.438 136.164C514.02 136.164 514.492 136.636 514.492 137.219C514.492 137.802 514.02 138.273 513.438 138.273H496.562C495.98 138.273 495.508 137.802 495.508 137.219C495.508 136.636 495.98 136.164 496.562 136.164H513.438Z" fill="#E17E9A"/>
<path d="M307 272C307 272 334.496 313.766 372.207 320C407.087 325.766 417.186 290.259 452.184 296C490.335 302.259 483.441 339.505 518.504 344C545.85 347.505 577 312 577 312V489.6C577 503.041 577 509.762 574.384 514.896C572.083 519.412 568.412 523.083 563.896 525.384C558.762 528 552.041 528 538.6 528H345.4C331.959 528 325.238 528 320.104 525.384C315.588 523.083 311.917 519.412 309.616 514.896C307 509.762 307 503.041 307 489.6L307 272Z" fill="url(#paint2_linear)"/>
<path d="M373.475 443.33C373.475 447.214 373.227 450.517 372.732 453.238C372.262 455.935 371.396 458.137 370.135 459.844C368.898 461.551 367.191 462.8 365.014 463.592C362.837 464.359 360.066 464.742 356.701 464.742C355.242 464.742 353.732 464.631 352.174 464.408C350.615 464.21 349.193 463.951 347.906 463.629C346.645 463.283 345.605 462.887 344.789 462.441C343.973 461.996 343.564 461.551 343.564 461.105C343.564 460.833 343.676 460.611 343.898 460.438C344.146 460.24 344.48 460.141 344.9 460.141C345.148 460.141 345.445 460.19 345.791 460.289C346.137 460.363 346.508 460.462 346.904 460.586C347.3 460.71 347.696 460.833 348.092 460.957C348.512 461.081 348.908 461.18 349.279 461.254C350.318 461.477 351.469 461.687 352.73 461.885C354.017 462.083 355.34 462.182 356.701 462.182C358.928 462.182 360.895 462.008 362.602 461.662C364.333 461.316 365.793 460.536 366.98 459.324C368.168 458.087 369.071 456.269 369.689 453.869C370.308 451.469 370.617 448.229 370.617 444.146C370.197 444.344 369.665 444.555 369.021 444.777C368.403 444.975 367.611 445.161 366.646 445.334C365.682 445.507 364.531 445.656 363.195 445.779C361.859 445.878 360.264 445.928 358.408 445.928C355.662 445.928 353.25 445.755 351.172 445.408C349.094 445.037 347.35 444.406 345.939 443.516C344.554 442.6 343.503 441.351 342.785 439.768C342.092 438.184 341.746 436.168 341.746 433.719C341.746 432.21 342.018 430.75 342.562 429.34C343.132 427.905 344.047 426.643 345.309 425.555C346.595 424.466 348.265 423.588 350.318 422.92C352.372 422.252 354.908 421.918 357.926 421.918C360.796 421.918 363.22 422.289 365.199 423.031C367.178 423.749 368.774 424.949 369.986 426.631C371.223 428.313 372.114 430.527 372.658 433.273C373.202 435.995 373.475 439.347 373.475 443.33ZM370.617 442.18C370.617 438.815 370.395 435.995 369.949 433.719C369.504 431.443 368.774 429.624 367.76 428.264C366.745 426.903 365.422 425.938 363.789 425.369C362.156 424.775 360.152 424.479 357.777 424.479C355.18 424.479 353.027 424.751 351.32 425.295C349.613 425.839 348.253 426.557 347.238 427.447C346.249 428.338 345.556 429.352 345.16 430.49C344.764 431.628 344.566 432.803 344.566 434.016C344.566 436.118 344.851 437.788 345.42 439.025C345.989 440.238 346.842 441.165 347.98 441.809C349.143 442.452 350.59 442.872 352.322 443.07C354.054 443.243 356.083 443.33 358.408 443.33C359.967 443.33 361.365 443.305 362.602 443.256C363.839 443.182 364.939 443.095 365.904 442.996C366.894 442.872 367.772 442.749 368.539 442.625C369.306 442.477 369.999 442.328 370.617 442.18ZM410.102 443.33C410.102 440.114 409.904 437.318 409.508 434.943C409.137 432.544 408.444 430.564 407.43 429.006C406.44 427.423 405.067 426.247 403.311 425.48C401.579 424.714 399.365 424.33 396.668 424.33C393.996 424.33 391.794 424.714 390.062 425.48C388.331 426.247 386.958 427.423 385.943 429.006C384.929 430.564 384.224 432.544 383.828 434.943C383.432 437.318 383.234 440.114 383.234 443.33C383.234 446.571 383.432 449.379 383.828 451.754C384.224 454.129 384.929 456.108 385.943 457.691C386.958 459.25 388.331 460.413 390.062 461.18C391.794 461.947 393.996 462.33 396.668 462.33C399.365 462.33 401.579 461.947 403.311 461.18C405.067 460.413 406.44 459.25 407.43 457.691C408.444 456.108 409.137 454.129 409.508 451.754C409.904 449.379 410.102 446.571 410.102 443.33ZM380.414 443.33C380.414 440.114 380.624 437.182 381.045 434.535C381.49 431.888 382.307 429.637 383.494 427.781C384.682 425.901 386.327 424.454 388.43 423.439C390.557 422.4 393.303 421.881 396.668 421.881C400.033 421.881 402.766 422.4 404.869 423.439C406.997 424.454 408.654 425.901 409.842 427.781C411.029 429.637 411.833 431.888 412.254 434.535C412.699 437.182 412.922 440.114 412.922 443.33C412.922 446.571 412.699 449.515 412.254 452.162C411.833 454.785 411.029 457.036 409.842 458.916C408.654 460.771 406.997 462.219 404.869 463.258C402.766 464.272 400.033 464.779 396.668 464.779C393.303 464.779 390.557 464.272 388.43 463.258C386.327 462.219 384.682 460.771 383.494 458.916C382.307 457.036 381.49 454.785 381.045 452.162C380.624 449.515 380.414 446.571 380.414 443.33ZM449.141 458.842L472.148 424.256C472.52 423.687 472.891 423.279 473.262 423.031C473.658 422.784 474.041 422.66 474.412 422.66C474.882 422.66 475.266 422.858 475.562 423.254C475.884 423.625 476.045 424.095 476.045 424.664V461.402C476.045 462.12 475.958 462.738 475.785 463.258C475.612 463.753 475.167 464 474.449 464C473.831 464 473.41 463.753 473.188 463.258C472.99 462.738 472.891 462.12 472.891 461.402V428.449L450.959 460.809C450.365 461.65 449.759 462.07 449.141 462.07C448.473 462.07 447.867 461.65 447.322 460.809L425.391 428.449V461.402C425.391 462.12 425.279 462.738 425.057 463.258C424.859 463.753 424.451 464 423.832 464C423.115 464 422.669 463.753 422.496 463.258C422.323 462.738 422.236 462.12 422.236 461.402V424.664C422.236 424.095 422.385 423.625 422.682 423.254C423.003 422.858 423.399 422.66 423.869 422.66C424.215 422.66 424.574 422.784 424.945 423.031C425.341 423.279 425.737 423.687 426.133 424.256L449.141 458.842Z" fill="white"/>
<path d="M342.5 496H341.47V481.85H342.5V496ZM346.597 496V486.05H347.117C347.29 486.05 347.39 486.133 347.417 486.3L347.507 487.8C347.96 487.227 348.487 486.767 349.087 486.42C349.693 486.067 350.367 485.89 351.107 485.89C351.653 485.89 352.133 485.977 352.547 486.15C352.967 486.323 353.313 486.573 353.587 486.9C353.86 487.227 354.067 487.62 354.207 488.08C354.347 488.54 354.417 489.06 354.417 489.64V496H353.467V489.64C353.467 488.707 353.253 487.977 352.827 487.45C352.4 486.917 351.747 486.65 350.867 486.65C350.213 486.65 349.607 486.82 349.047 487.16C348.487 487.493 347.987 487.953 347.547 488.54V496H346.597ZM360.833 496H359.993L355.793 486.05H356.543C356.636 486.05 356.71 486.077 356.763 486.13C356.823 486.177 356.866 486.23 356.893 486.29L360.173 494.14C360.24 494.293 360.29 494.44 360.323 494.58C360.356 494.72 360.39 494.86 360.423 495C360.456 494.86 360.49 494.72 360.523 494.58C360.563 494.433 360.613 494.287 360.673 494.14L363.973 486.29C364.006 486.217 364.05 486.16 364.103 486.12C364.163 486.073 364.233 486.05 364.313 486.05H365.033L360.833 496ZM370.483 485.89C371.043 485.89 371.56 485.987 372.033 486.18C372.513 486.373 372.927 486.657 373.273 487.03C373.627 487.397 373.9 487.85 374.093 488.39C374.293 488.93 374.393 489.55 374.393 490.25C374.393 490.397 374.37 490.497 374.323 490.55C374.283 490.603 374.217 490.63 374.123 490.63H366.933V490.82C366.933 491.567 367.02 492.223 367.193 492.79C367.367 493.357 367.613 493.833 367.933 494.22C368.253 494.6 368.64 494.887 369.093 495.08C369.547 495.273 370.053 495.37 370.613 495.37C371.113 495.37 371.547 495.317 371.913 495.21C372.28 495.097 372.587 494.973 372.833 494.84C373.087 494.7 373.287 494.577 373.433 494.47C373.58 494.357 373.687 494.3 373.753 494.3C373.84 494.3 373.907 494.333 373.953 494.4L374.213 494.72C374.053 494.92 373.84 495.107 373.573 495.28C373.313 495.453 373.02 495.603 372.693 495.73C372.373 495.85 372.027 495.947 371.653 496.02C371.287 496.093 370.917 496.13 370.543 496.13C369.863 496.13 369.243 496.013 368.683 495.78C368.123 495.54 367.643 495.193 367.243 494.74C366.843 494.287 366.533 493.733 366.313 493.08C366.1 492.42 365.993 491.667 365.993 490.82C365.993 490.107 366.093 489.45 366.293 488.85C366.5 488.243 366.793 487.723 367.173 487.29C367.56 486.85 368.03 486.507 368.583 486.26C369.143 486.013 369.777 485.89 370.483 485.89ZM370.493 486.6C369.98 486.6 369.52 486.68 369.113 486.84C368.707 487 368.353 487.23 368.053 487.53C367.76 487.83 367.52 488.19 367.333 488.61C367.153 489.03 367.033 489.5 366.973 490.02H373.533C373.533 489.487 373.46 489.01 373.313 488.59C373.167 488.163 372.96 487.803 372.693 487.51C372.427 487.217 372.107 486.993 371.733 486.84C371.36 486.68 370.947 486.6 370.493 486.6ZM382.428 487.28C382.381 487.373 382.308 487.42 382.208 487.42C382.135 487.42 382.038 487.38 381.918 487.3C381.805 487.213 381.651 487.12 381.458 487.02C381.271 486.913 381.038 486.82 380.758 486.74C380.485 486.653 380.148 486.61 379.748 486.61C379.388 486.61 379.058 486.663 378.758 486.77C378.465 486.87 378.211 487.007 377.998 487.18C377.791 487.353 377.628 487.557 377.508 487.79C377.395 488.017 377.338 488.257 377.338 488.51C377.338 488.823 377.418 489.083 377.578 489.29C377.738 489.497 377.948 489.673 378.208 489.82C378.468 489.967 378.761 490.093 379.088 490.2C379.421 490.307 379.761 490.413 380.108 490.52C380.455 490.627 380.791 490.747 381.118 490.88C381.451 491.007 381.748 491.167 382.008 491.36C382.268 491.553 382.478 491.79 382.638 492.07C382.798 492.35 382.878 492.69 382.878 493.09C382.878 493.523 382.798 493.927 382.638 494.3C382.485 494.673 382.258 494.997 381.958 495.27C381.665 495.543 381.301 495.76 380.868 495.92C380.435 496.08 379.941 496.16 379.388 496.16C378.688 496.16 378.085 496.05 377.578 495.83C377.071 495.603 376.618 495.31 376.218 494.95L376.448 494.61C376.481 494.557 376.518 494.517 376.558 494.49C376.598 494.463 376.655 494.45 376.728 494.45C376.815 494.45 376.921 494.503 377.048 494.61C377.175 494.717 377.338 494.833 377.538 494.96C377.745 495.08 377.998 495.193 378.298 495.3C378.605 495.407 378.981 495.46 379.428 495.46C379.848 495.46 380.218 495.403 380.538 495.29C380.858 495.17 381.125 495.01 381.338 494.81C381.551 494.61 381.711 494.377 381.818 494.11C381.931 493.837 381.988 493.55 381.988 493.25C381.988 492.917 381.908 492.64 381.748 492.42C381.588 492.2 381.378 492.013 381.118 491.86C380.858 491.707 380.561 491.577 380.228 491.47C379.901 491.363 379.561 491.257 379.208 491.15C378.861 491.043 378.521 490.927 378.188 490.8C377.861 490.673 377.568 490.513 377.308 490.32C377.048 490.127 376.838 489.893 376.678 489.62C376.518 489.34 376.438 488.993 376.438 488.58C376.438 488.227 376.515 487.887 376.668 487.56C376.821 487.233 377.038 486.947 377.318 486.7C377.605 486.453 377.951 486.257 378.358 486.11C378.765 485.963 379.221 485.89 379.728 485.89C380.335 485.89 380.871 485.977 381.338 486.15C381.811 486.323 382.245 486.59 382.638 486.95L382.428 487.28ZM388.262 496.16C387.589 496.16 387.062 495.973 386.682 495.6C386.309 495.227 386.122 494.65 386.122 493.87V487.07H384.692C384.619 487.07 384.559 487.05 384.512 487.01C384.465 486.97 384.442 486.913 384.442 486.84V486.47L386.142 486.35L386.382 482.79C386.389 482.73 386.412 482.677 386.452 482.63C386.499 482.583 386.559 482.56 386.632 482.56H387.082V486.36H390.212V487.07H387.082V493.82C387.082 494.093 387.115 494.33 387.182 494.53C387.255 494.723 387.352 494.883 387.472 495.01C387.599 495.137 387.745 495.23 387.912 495.29C388.079 495.35 388.259 495.38 388.452 495.38C388.692 495.38 388.899 495.347 389.072 495.28C389.245 495.207 389.395 495.13 389.522 495.05C389.649 494.963 389.752 494.887 389.832 494.82C389.912 494.747 389.975 494.71 390.022 494.71C390.075 494.71 390.129 494.743 390.182 494.81L390.442 495.23C390.189 495.51 389.865 495.737 389.472 495.91C389.085 496.077 388.682 496.16 388.262 496.16ZM396.421 485.89C396.981 485.89 397.497 485.987 397.971 486.18C398.451 486.373 398.864 486.657 399.211 487.03C399.564 487.397 399.837 487.85 400.031 488.39C400.231 488.93 400.331 489.55 400.331 490.25C400.331 490.397 400.307 490.497 400.261 490.55C400.221 490.603 400.154 490.63 400.061 490.63H392.871V490.82C392.871 491.567 392.957 492.223 393.131 492.79C393.304 493.357 393.551 493.833 393.871 494.22C394.191 494.6 394.577 494.887 395.031 495.08C395.484 495.273 395.991 495.37 396.551 495.37C397.051 495.37 397.484 495.317 397.851 495.21C398.217 495.097 398.524 494.973 398.771 494.84C399.024 494.7 399.224 494.577 399.371 494.47C399.517 494.357 399.624 494.3 399.691 494.3C399.777 494.3 399.844 494.333 399.891 494.4L400.151 494.72C399.991 494.92 399.777 495.107 399.511 495.28C399.251 495.453 398.957 495.603 398.631 495.73C398.311 495.85 397.964 495.947 397.591 496.02C397.224 496.093 396.854 496.13 396.481 496.13C395.801 496.13 395.181 496.013 394.621 495.78C394.061 495.54 393.581 495.193 393.181 494.74C392.781 494.287 392.471 493.733 392.251 493.08C392.037 492.42 391.931 491.667 391.931 490.82C391.931 490.107 392.031 489.45 392.231 488.85C392.437 488.243 392.731 487.723 393.111 487.29C393.497 486.85 393.967 486.507 394.521 486.26C395.081 486.013 395.714 485.89 396.421 485.89ZM396.431 486.6C395.917 486.6 395.457 486.68 395.051 486.84C394.644 487 394.291 487.23 393.991 487.53C393.697 487.83 393.457 488.19 393.271 488.61C393.091 489.03 392.971 489.5 392.911 490.02H399.471C399.471 489.487 399.397 489.01 399.251 488.59C399.104 488.163 398.897 487.803 398.631 487.51C398.364 487.217 398.044 486.993 397.671 486.84C397.297 486.68 396.884 486.6 396.431 486.6ZM409.936 496C409.769 496 409.672 495.913 409.646 495.74L409.546 494.17C409.106 494.77 408.589 495.247 407.996 495.6C407.409 495.953 406.749 496.13 406.016 496.13C404.796 496.13 403.842 495.707 403.156 494.86C402.476 494.013 402.136 492.743 402.136 491.05C402.136 490.323 402.229 489.647 402.416 489.02C402.609 488.387 402.889 487.84 403.256 487.38C403.629 486.913 404.082 486.547 404.616 486.28C405.156 486.013 405.776 485.88 406.476 485.88C407.149 485.88 407.732 486.007 408.226 486.26C408.719 486.507 409.146 486.87 409.506 487.35V481.45H410.466V496H409.936ZM406.286 495.36C406.946 495.36 407.542 495.19 408.076 494.85C408.609 494.51 409.086 494.037 409.506 493.43V488.18C409.119 487.613 408.692 487.213 408.226 486.98C407.766 486.747 407.242 486.63 406.656 486.63C406.069 486.63 405.556 486.737 405.116 486.95C404.676 487.163 404.306 487.467 404.006 487.86C403.712 488.247 403.489 488.713 403.336 489.26C403.189 489.8 403.116 490.397 403.116 491.05C403.116 492.53 403.389 493.62 403.936 494.32C404.482 495.013 405.266 495.36 406.286 495.36Z" fill="white"/>
</g>
<defs>
<filter id="filter0_d" x="0" y="10" width="284" height="475" filterUnits="userSpaceOnUse" color-interpolation-filters="sRGB">
<feFlood flood-opacity="0" result="BackgroundImageFix"/>
<feColorMatrix in="SourceAlpha" type="matrix" values="0 0 0 0 0 0 0 0 0 0 0 0 0 0 0 0 0 0 127 0"/>
<feOffset dy="14"/>
<feGaussianBlur stdDeviation="13.5"/>
<feColorMatrix type="matrix" values="0 0 0 0 0 0 0 0 0 0.0365444 0 0 0 0 0.153486 0 0 0 1 0"/>
<feBlend mode="normal" in2="BackgroundImageFix" result="effect1_dropShadow"/>
<feBlend mode="normal" in="SourceGraphic" in2="effect1_dropShadow" result="shape"/>
</filter>
<filter id="filter1_d" x="141" y="24" width="128" height="128" filterUnits="userSpaceOnUse" color-interpolation-filters="sRGB">
<feFlood flood-opacity="0" result="BackgroundImageFix"/>
<feColorMatrix in="SourceAlpha" type="matrix" values="0 0 0 0 0 0 0 0 0 0 0 0 0 0 0 0 0 0 127 0"/>
<feOffset dy="16"/>
<feGaussianBlur stdDeviation="12"/>
<feColorMatrix type="matrix" values="0 0 0 0 0 0 0 0 0 0.0458667 0 0 0 0 0.141422 0 0 0 0.158769 0"/>
<feBlend mode="normal" in2="BackgroundImageFix" result="effect1_dropShadow"/>
<feBlend mode="normal" in="SourceGraphic" in2="effect1_dropShadow" result="shape"/>
</filter>
<filter id="filter2_d" x="300" y="77" width="284" height="472" filterUnits="userSpaceOnUse" color-interpolation-filters="sRGB">
<feFlood flood-opacity="0" result="BackgroundImageFix"/>
<feColorMatrix in="SourceAlpha" type="matrix" values="0 0 0 0 0 0 0 0 0 0 0 0 0 0 0 0 0 0 127 0"/>
<feOffset dy="14"/>
<feGaussianBlur stdDeviation="13.5"/>
<feColorMatrix type="matrix" values="0 0 0 0 0.146604 0 0 0 0 0 0 0 0 0 0.0414637 0 0 0 1 0"/>
<feBlend mode="normal" in2="BackgroundImageFix" result="effect1_dropShadow"/>
<feBlend mode="normal" in="SourceGraphic" in2="effect1_dropShadow" result="shape"/>
</filter>
<filter id="filter3_d" x="441" y="88" width="128" height="128" filterUnits="userSpaceOnUse" color-interpolation-filters="sRGB">
<feFlood flood-opacity="0" result="BackgroundImageFix"/>
<feColorMatrix in="SourceAlpha" type="matrix" values="0 0 0 0 0 0 0 0 0 0 0 0 0 0 0 0 0 0 127 0"/>
<feOffset dy="16"/>
<feGaussianBlur stdDeviation="12"/>
<feColorMatrix type="matrix" values="0 0 0 0 0.141422 0 0 0 0 0 0 0 0 0 0.0683813 0 0 0 0.158769 0"/>
<feBlend mode="normal" in2="BackgroundImageFix" result="effect1_dropShadow"/>
<feBlend mode="normal" in="SourceGraphic" in2="effect1_dropShadow" result="shape"/>
</filter>
<linearGradient id="paint0_linear" x1="544.078" y1="88" x2="544.078" y2="530.418" gradientUnits="userSpaceOnUse">
<stop stop-color="#4F95F1"/>
<stop offset="1" stop-color="#86C8F9"/>
</linearGradient>
<linearGradient id="paint1_linear" x1="7" y1="200" x2="7" y2="464.449" gradientUnits="userSpaceOnUse">
<stop stop-color="#6378F7"/>
<stop offset="1" stop-color="#88AAF8"/>
</linearGradient>
<linearGradient id="paint2_linear" x1="307" y1="272" x2="307" y2="528" gradientUnits="userSpaceOnUse">
<stop stop-color="#D15E84"/>
<stop offset="1" stop-color="#F19DB0"/>
</linearGradient>
<clipPath id="clip0">
<rect width="270" height="464" fill="white" transform="translate(307 64)"/>
</clipPath>
</defs>
</svg>
